<svg xmlns="http://www.w3.org/2000/svg" height="1em" width="1em" viewBox="0 0 649.18 651.56"><path fill="#010101" d="M608.41 166.95a354.12 354.12 0 0 1 24.34 56.25 323.39 323.39 0 0 1-18.46 247.84c-53.62 106.54-168.42 179.59-288 180.51-120.14.92-231.84-69.38-288.12-174.54A323.79 323.79 0 0 1 3.64 372.83c-6.28-40.65-4.19-80.93 4.62-121 3.8-17.24 8.5-34.42 15.56-50.41 26.4-59.82 65.32-109.68 120.41-146.2C226.44.74 332.29-15.32 426.36 15.55c78.21 25.67 140.58 81.19 182.05 151.4Z"/><path fill="#ed1e25" d="M338.78 29.16c83.09 2.49 162.41 40.58 221.86 117.92 36.44 47.41 55.5 101.4 59.31 161 .46 7.13-1.91 11.53-7.28 15.33-21.69 15.35-45.07 27.54-69.52 37.86a545.67 545.67 0 0 1-106.86 32.57c-7.42 1.46-14.9 2.59-22.33 3.95-4.32.8-6.49-.21-8.18-5-15-42.69-52.41-65.47-95.23-57-31.54 6.26-52.37 25.95-62.55 56.34-2 5.84-3.72 7.54-10.19 6.66a528.74 528.74 0 0 1-121.21-31.05c-29.55-11.51-57.77-25.67-83.77-44-3.23-2.29-3.94-4.74-3.83-8.29A295.24 295.24 0 0 1 179.71 67.06c45-25.32 93.43-37.84 159.07-37.9Z"/><path fill="#fff" d="M606.44 394.61C574 525.92 454.1 631.54 301.98 621.1 151.36 610.74 57.29 492.39 39.36 395.33c12.44 5.84 24.66 11.85 37.1 17.36 48 21.24 98.1 34.87 150 42.35a35.35 35.35 0 0 0 4.21.53c15.89.44 27.15 7.09 38.78 19.09 36.65 37.84 96.61 30.65 126-13.1a9.74 9.74 0 0 1 7.5-4.52 603.9 603.9 0 0 0 153.73-39.54c12.89-5.19 25.37-11.4 38-17.18 3.61-1.66 7.16-3.47 11.76-5.71Z"/><path fill="#fff" d="M326.5 362.74c29.68-.09 54.31 24.24 54.34 53.7s-24.54 54-54.17 53.89a53.4 53.4 0 0 1-53.61-53.38c-.12-30.21 23.44-54.12 53.44-54.21Z"/></svg>